<?xml version="1.0" encoding="UTF-8" standalone="no"?>
<!DOCTYPE svg PUBLIC "-//W3C//DTD SVG 1.1//EN" "http://www.w3.org/Graphics/SVG/1.1/DTD/svg11.dtd">
<svg width="100%" height="100%" viewBox="0 0 312 335" version="1.1" xmlns="http://www.w3.org/2000/svg" xmlns:xlink="http://www.w3.org/1999/xlink" xml:space="preserve" xmlns:serif="http://www.serif.com/" style="fill-rule:evenodd;clip-rule:evenodd;stroke-linejoin:round;stroke-miterlimit:2;">
    <g transform="matrix(1,0,0,1,0.340295,10.0054)">
        <path d="M156.598,18.457L157.195,18.7L157.791,18.944L158.385,19.189L158.978,19.435L159.57,19.681L160.16,19.929L160.749,20.178L161.337,20.427L161.923,20.678L162.509,20.929L163.093,21.181L163.675,21.434L164.257,21.689L164.837,21.944L165.416,22.199L165.993,22.456L166.569,22.714L167.144,22.973L167.718,23.232L168.29,23.493L168.861,23.754L169.431,24.017L170,24.28L170.567,24.544L171.133,24.809L171.697,25.075L172.261,25.342L172.823,25.61L173.384,25.879L173.943,26.148L174.501,26.419L175.058,26.69L175.614,26.963L176.168,27.236L176.721,27.51L177.273,27.785L177.824,28.061L178.373,28.338L178.921,28.616L179.468,28.895L180.013,29.175L180.557,29.455L181.1,29.737L181.642,30.019L182.182,30.302L182.721,30.587L183.259,30.872L183.795,31.158L184.33,31.445L184.864,31.733L185.397,32.021L185.928,32.311L186.458,32.602L186.987,32.893L187.514,33.186L188.041,33.479L188.566,33.773L189.089,34.068L189.612,34.364L190.133,34.661L190.653,34.959L191.171,35.258L191.688,35.558L192.204,35.858L192.719,36.16L193.233,36.462L193.745,36.765L194.256,37.07L194.765,37.375L195.274,37.681L195.781,37.988L196.287,38.295L196.791,38.604L197.295,38.914L197.797,39.224L198.297,39.536L198.797,39.848L199.295,40.161L199.792,40.476L200.288,40.791L200.782,41.107L201.275,41.423L201.767,41.741L202.257,42.06L202.747,42.379L203.235,42.7L203.722,43.021L204.207,43.344L204.691,43.667L205.174,43.991L205.656,44.316L206.136,44.642L206.615,44.969L207.093,45.296L207.57,45.625L208.045,45.954L208.519,46.285L208.992,46.616L209.464,46.948L209.934,47.281L210.403,47.615L210.871,47.95L211.337,48.286L211.803,48.623L212.267,48.96L212.729,49.299L213.191,49.638L213.651,49.978L214.11,50.32L214.567,50.662L215.024,51.005L215.479,51.349L215.933,51.693L216.385,52.039L216.837,52.386L217.287,52.733L217.736,53.081L218.183,53.431L218.63,53.781L219.075,54.132L219.518,54.484L219.961,54.837L220.402,55.191L220.842,55.545L221.281,55.901L221.718,56.257L222.155,56.614L222.59,56.973L223.023,57.332L223.456,57.692L223.887,58.053L224.317,58.414L224.745,58.777L225.173,59.141L225.599,59.505L226.024,59.871L226.448,60.237L226.87,60.604L227.291,60.972L227.711,61.341L228.13,61.711L228.547,62.082L228.963,62.453L229.378,62.826L229.792,63.199L230.204,63.573L230.615,63.949L231.025,64.325L231.434,64.702L231.841,65.079L232.247,65.458L232.652,65.838L233.056,66.218L233.458,66.6L233.859,66.982L234.259,67.365L234.658,67.749L235.055,68.134L235.451,68.52L235.846,68.907L236.239,69.294L236.632,69.683L237.023,70.072L237.413,70.463L237.801,70.854L238.189,71.246L238.575,71.639L238.96,72.033L239.343,72.427L239.726,72.823L240.107,73.22L240.487,73.617L240.865,74.015L241.243,74.414L241.619,74.815L241.994,75.215L242.367,75.617L242.74,76.02L243.111,76.424L243.481,76.828L243.85,77.233L244.217,77.64L244.583,78.047L244.948,78.455L245.312,78.864L245.674,79.273L246.036,79.684L246.396,80.096L246.754,80.508L247.112,80.921L247.468,81.336L247.823,81.751L248.177,82.167L248.529,82.584L248.881,83.001L249.231,83.42L249.579,83.839L249.927,84.26L250.273,84.681L250.618,85.103L250.962,85.526L251.305,85.95L251.646,86.375L251.986,86.8L252.325,87.227L252.663,87.654L252.999,88.083L253.335,88.512L253.669,88.942L254.001,89.373L254.333,89.805L254.663,90.237L254.992,90.671L255.32,91.105L255.646,91.541L255.972,91.977L256.296,92.414L256.619,92.852L256.94,93.291L257.261,93.73L257.58,94.171L257.898,94.612L258.214,95.055L258.53,95.498L258.844,95.942L259.157,96.387L259.469,96.833L259.779,97.28L260.089,97.727L260.397,98.176L260.703,98.625L261.009,99.075L261.313,99.526L261.616,99.978L261.918,100.431L262.219,100.885L262.518,101.34L262.817,101.795L263.114,102.251L263.409,102.709L263.704,103.167L263.997,103.626L264.289,104.085L264.58,104.546L264.87,105.008L265.158,105.47L265.445,105.934L265.731,106.398L266.016,106.863L266.3,107.329L266.582,107.796L266.863,108.263L267.143,108.732L267.421,109.201L267.699,109.672L267.975,110.143L268.25,110.615L268.523,111.088L268.796,111.561L269.067,112.036L269.337,112.512L269.606,112.988L269.874,113.465L270.14,113.943L270.405,114.422L270.669,114.902L270.932,115.383L271.193,115.865L271.453,116.347L271.712,116.83L271.97,117.314L272.227,117.8L272.482,118.285L272.736,118.772L272.989,119.26L273.241,119.748L273.492,120.238L273.741,120.728L273.989,121.219L274.236,121.711L274.481,122.204L274.726,122.698L274.969,123.192L275.211,123.688L275.452,124.184L275.691,124.681L275.93,125.18L276.167,125.678L276.403,126.178L276.637,126.679L276.871,127.18L277.103,127.683L277.334,128.186L277.564,128.69L277.793,129.195L278.02,129.701L278.246,130.208L278.471,130.715L278.695,131.224L278.918,131.733L279.139,132.243L279.359,132.754L279.578,133.266L279.796,133.778L280.012,134.292L280.227,134.807L280.442,135.322L280.654,135.838L280.866,136.355L281.077,136.873L281.286,137.392L281.494,137.911L281.701,138.432L281.906,138.953L282.111,139.475L282.314,139.998L282.516,140.522L282.717,141.047L282.916,141.573L283.115,142.099L283.312,142.626L283.508,143.155L283.702,143.684L283.896,144.214L284.088,144.744L284.279,145.276L284.469,145.808L284.658,146.342L284.846,146.876L285.032,147.411L285.217,147.947L285.401,148.484L285.584,149.021L285.765,149.56L285.945,150.099L286.125,150.639L286.302,151.18L286.479,151.722L286.655,152.265L286.829,152.808L287.002,153.353L287.174,153.898L287.345,154.444L287.514,154.991L287.682,155.539L287.849,156.088L288.015,156.638L288.18,157.188L288.343,157.739L288.506,158.291L288.667,158.844L288.827,159.398L288.985,159.953L289.143,160.509L289.299,161.065L289.454,161.622L289.608,162.18L289.761,162.739L289.912,163.299L290.063,163.86L290.212,164.421L290.36,164.984L290.506,165.547L290.652,166.111L290.796,166.676L290.939,167.241L291.081,167.808L291.222,168.376L291.362,168.944L291.5,169.513L291.637,170.083L291.773,170.654L291.908,171.226L292.042,171.798L292.174,172.371L292.305,172.946L292.435,173.521L292.564,174.097L292.692,174.673L292.818,175.251L292.943,175.83L293.067,176.409L293.19,176.989L293.312,177.57L293.433,178.152L293.552,178.735L293.67,179.318L293.787,179.903L293.903,180.488L294.017,181.074L294.131,181.661L294.243,182.249L294.354,182.837L294.463,183.427L294.572,184.017L294.68,184.608L294.786,185.2L294.891,185.793L294.995,186.387L295.097,186.981L295.199,187.577L295.299,188.173L295.398,188.77L295.496,189.368L295.593,189.966L295.689,190.566L295.783,191.166L295.876,191.768L295.968,192.37L296.059,192.973L296.149,193.577L296.237,194.181L296.324,194.787L296.411,195.393L296.496,196L296.579,196.608L296.662,197.217L296.743,197.827L296.823,198.437L296.902,199.048L296.98,199.661L297.057,200.274L297.132,200.888L297.207,201.502L297.28,202.118L297.352,202.734L297.423,203.351L297.492,203.969L297.561,204.588L297.628,205.208L297.694,205.829L297.759,206.45L297.822,207.072L297.885,207.695L297.946,208.319L298.007,208.944L298.066,209.57L298.123,210.196L298.18,210.823L298.236,211.451L298.29,212.08L298.343,212.71L298.395,213.341L298.446,213.972L298.495,214.604L298.544,215.238L298.591,215.871L298.637,216.506L298.682,217.142L298.726,217.778L298.768,218.416L298.81,219.054L298.85,219.693L298.889,220.332L298.927,220.973L298.964,221.614L298.999,222.257L299.033,222.9L299.067,223.544L299.099,224.188L299.13,224.834L299.159,225.481L299.188,226.128L299.215,226.776L299.241,227.425L299.266,228.075L299.29,228.725L299.313,229.377L299.334,230.029L299.355,230.682L299.374,231.336L299.392,231.99L299.409,232.646L299.425,233.302L299.439,233.96L299.452,234.618L299.465,235.277L299.476,235.936L299.485,236.597L299.494,237.258L299.502,237.92L299.508,238.583L299.513,239.247L299.517,239.912L299.52,240.577L299.522,241.244L299.523,241.911L299.522,242.579L299.52,243.248L299.517,243.917L299.513,244.588L299.508,245.259L299.501,245.931L299.494,246.604L299.485,247.278L299.475,247.952L299.464,248.628L299.452,249.304L299.439,249.981L299.424,250.659L299.408,251.338L299.392,252.017L299.374,252.698L299.354,253.379L299.334,254.061L299.313,254.744L299.29,255.427L299.266,256.112L299.241,256.797L299.215,257.483L299.188,258.17L298.618,258.472L298.048,258.773L297.479,259.073L296.909,259.371L296.34,259.668L295.77,259.964L295.201,260.259L294.631,260.553L294.062,260.846L293.492,261.137L292.923,261.427L292.354,261.716L291.784,262.004L291.215,262.29L290.646,262.576L290.077,262.86L289.508,263.143L288.939,263.425L288.37,263.705L287.801,263.985L287.232,264.263L286.663,264.54L286.094,264.816L285.525,265.09L284.956,265.364L284.387,265.636L283.819,265.907L283.25,266.177L282.681,266.446L282.113,266.714L281.544,266.98L280.976,267.245L280.407,267.509L279.839,267.772L279.27,268.033L278.702,268.294L278.133,268.553L277.565,268.811L276.997,269.068L276.429,269.324L275.86,269.578L275.292,269.831L274.724,270.083L274.156,270.334L273.588,270.584L273.02,270.832L272.452,271.08L271.884,271.326L271.316,271.571L270.748,271.815L270.18,272.057L269.613,272.299L269.045,272.539L268.477,272.778L267.909,273.016L267.342,273.252L266.774,273.488L266.207,273.722L265.639,273.955L265.072,274.187L264.504,274.418L263.937,274.647L263.369,274.876L262.802,275.103L262.235,275.329L261.667,275.554L261.1,275.777L260.533,276L259.966,276.221L259.399,276.441L258.832,276.66L258.265,276.877L257.698,277.094L257.131,277.309L256.564,277.523L255.997,277.736L255.43,277.948L254.863,278.158L254.296,278.368L253.73,278.576L253.163,278.783L252.596,278.988L252.03,279.193L251.463,279.396L250.896,279.599L250.33,279.8L249.763,280L249.197,280.198L248.631,280.396L248.064,280.592L247.498,280.787L246.932,280.981L246.365,281.174L245.799,281.365L245.233,281.556L244.667,281.745L244.101,281.933L243.535,282.12L242.969,282.305L242.403,282.49L241.837,282.673L241.271,282.855L240.705,283.036L240.139,283.216L239.573,283.394L239.008,283.571L238.442,283.748L237.876,283.923L237.31,284.096L236.745,284.269L236.179,284.44L235.614,284.611L235.048,284.78L234.483,284.947L233.917,285.114L233.352,285.28L232.787,285.444L232.221,285.607L231.656,285.769L231.091,285.93L230.526,286.089L229.96,286.247L229.395,286.405L228.83,286.561L228.265,286.715L227.7,286.869L227.135,287.022L226.57,287.173L226.005,287.323L225.44,287.472L224.876,287.62L224.311,287.766L223.746,287.911L223.181,288.056L222.617,288.199L222.052,288.34L221.488,288.481L220.923,288.62L220.358,288.759L219.794,288.896L219.229,289.031L218.665,289.166L218.101,289.3L217.536,289.432L216.972,289.563L216.408,289.693L215.844,289.822L215.279,289.949L214.715,290.076L214.151,290.201L213.587,290.325L213.023,290.448L212.459,290.57L211.895,290.69L211.331,290.809L210.767,290.928L210.203,291.044L209.64,291.16L209.076,291.275L208.512,291.388L207.948,291.5L207.385,291.611L206.821,291.721L206.258,291.83L205.694,291.937L205.13,292.044L204.567,292.149L204.004,292.253L203.44,292.356L202.877,292.457L202.313,292.557L201.75,292.657L201.187,292.755L200.624,292.852L200.061,292.947L199.497,293.042L198.934,293.135L198.371,293.227L197.808,293.318L197.245,293.408L196.682,293.496L196.119,293.584L195.557,293.67L194.994,293.755L194.431,293.839L193.868,293.921L193.305,294.003L192.743,294.083L192.18,294.162L191.617,294.24L191.055,294.317L190.492,294.393L189.93,294.467L189.367,294.54L188.805,294.612L188.243,294.683L187.68,294.753L187.118,294.821L186.556,294.889L185.993,294.955L185.431,295.02L184.869,295.083L184.307,295.146L183.745,295.207L183.183,295.268L182.621,295.327L182.059,295.384L181.497,295.441L180.935,295.497L180.373,295.551L179.811,295.604L179.249,295.656L178.688,295.707L178.126,295.756L177.564,295.805L177.003,295.852L176.441,295.898L175.88,295.943L175.318,295.987L174.757,296.029L174.195,296.071L173.634,296.111L173.072,296.15L172.511,296.187L171.95,296.224L171.388,296.26L170.827,296.294L170.266,296.327L169.705,296.359L169.144,296.389L168.583,296.419L168.022,296.447L167.461,296.475L166.9,296.501L166.339,296.525L165.778,296.549L165.217,296.572L164.656,296.593L164.095,296.613L163.535,296.632L162.974,296.65L162.413,296.666L161.853,296.682L161.292,296.696L160.731,296.709L160.171,296.721L159.61,296.731L159.05,296.741L158.49,296.749L157.929,296.756L157.369,296.762L156.809,296.767L156.248,296.771L155.688,296.773L155.128,296.774L154.568,296.774L154.008,296.773L153.448,296.771L152.888,296.768L152.328,296.763L151.768,296.757L151.208,296.75L150.648,296.742L150.088,296.733L149.528,296.722L148.968,296.71L148.409,296.697L147.849,296.683L147.289,296.668L146.73,296.652L146.17,296.634L145.611,296.615L145.051,296.595L144.492,296.574L143.932,296.552L143.373,296.529L142.813,296.504L142.254,296.478L141.695,296.451L141.136,296.423L140.576,296.394L140.017,296.363L139.458,296.331L138.899,296.298L138.34,296.264L137.781,296.229L137.222,296.193L136.663,296.155L136.104,296.116L135.545,296.076L134.986,296.035L134.428,295.993L133.869,295.949L133.31,295.905L132.751,295.859L132.193,295.812L131.634,295.764L131.076,295.714L130.517,295.664L129.959,295.612L129.4,295.559L128.842,295.505L128.283,295.45L127.725,295.393L127.167,295.336L126.608,295.277L126.05,295.217L125.492,295.156L124.934,295.094L124.376,295.03L123.818,294.966L123.259,294.9L122.701,294.833L122.143,294.764L121.586,294.695L121.028,294.625L120.47,294.553L119.912,294.48L119.354,294.406L118.796,294.331L118.239,294.254L117.681,294.177L117.123,294.098L116.566,294.018L116.008,293.937L115.451,293.855L114.893,293.771L114.336,293.687L113.778,293.601L113.221,293.514L112.664,293.426L112.106,293.336L111.549,293.246L110.992,293.154L110.435,293.061L109.877,292.967L109.32,292.872L108.763,292.776L108.206,292.678L107.649,292.579L107.092,292.48L106.535,292.378L105.978,292.276L105.421,292.173L104.865,292.068L104.308,291.962L103.751,291.855L103.194,291.747L102.638,291.638L102.081,291.528L101.524,291.416L100.968,291.303L100.411,291.189L99.855,291.074L99.298,290.958L98.742,290.84L98.186,290.722L97.629,290.602L97.073,290.481L96.517,290.358L95.961,290.235L95.404,290.111L94.848,289.985L94.292,289.858L93.736,289.73L93.18,289.601L92.624,289.47L92.068,289.339L91.512,289.206L90.956,289.072L90.4,288.937L89.844,288.801L89.289,288.663L88.733,288.525L88.177,288.385L87.622,288.244L87.066,288.102L86.51,287.958L85.955,287.814L85.399,287.668L84.844,287.521L84.288,287.373L83.733,287.224L83.178,287.074L82.622,286.922L82.067,286.77L81.512,286.616L80.956,286.461L80.401,286.305L79.846,286.147L79.291,285.989L78.736,285.829L78.181,285.668L77.626,285.506L77.071,285.343L76.516,285.178L75.961,285.013L75.406,284.846L74.851,284.678L74.297,284.509L73.742,284.339L73.187,284.167L72.632,283.995L72.078,283.821L71.523,283.646L70.969,283.47L70.414,283.293L69.86,283.114L69.305,282.935L68.751,282.754L68.196,282.572L67.642,282.389L67.088,282.204L66.534,282.019L65.979,281.832L65.425,281.644L64.871,281.455L64.317,281.265L63.763,281.074L63.209,280.881L62.655,280.688L62.101,280.493L61.547,280.297L60.993,280.1L60.439,279.901L59.885,279.702L59.332,279.501L58.778,279.299L58.224,279.096L57.671,278.892L57.117,278.687L56.563,278.48L56.01,278.272L55.456,278.063L54.903,277.853L54.349,277.642L53.796,277.43L53.243,277.216L52.689,277.001L52.136,276.786L51.583,276.568L51.029,276.35L50.476,276.131L49.923,275.91L49.37,275.688L48.817,275.466L48.264,275.241L47.711,275.016L47.158,274.79L46.605,274.562L46.052,274.333L45.499,274.103L44.946,273.872L44.394,273.64L43.841,273.407L43.288,273.172L42.736,272.936L42.183,272.699L41.63,272.461L41.078,272.222L40.525,271.981L39.973,271.74L39.42,271.497L38.868,271.253L38.316,271.008L37.763,270.762L37.211,270.514L36.659,270.266L36.106,270.016L35.554,269.765L35.002,269.513L34.45,269.259L33.898,269.005L33.346,268.749L32.794,268.492L32.242,268.235L31.69,267.975L31.138,267.715L30.586,267.454L30.035,267.191L29.483,266.927L28.931,266.662L28.379,266.396L27.828,266.129L27.276,265.86L26.724,265.591L26.173,265.32L25.621,265.048L25.07,264.775L24.518,264.5L23.967,264.225L23.416,263.948L22.864,263.67L22.313,263.391L21.762,263.111L21.211,262.83L20.659,262.547L20.108,262.264L19.557,261.979L19.006,261.693L18.455,261.406L17.904,261.117L17.353,260.828L16.802,260.537L16.251,260.245L15.7,259.953L15.15,259.658L14.599,259.363L14.048,259.067L13.497,258.769L12.947,258.47L12.396,258.17L12.357,257.48L12.32,256.792L12.284,256.104L12.249,255.417L12.215,254.731L12.183,254.046L12.152,253.362L12.122,252.678L12.094,251.996L12.067,251.314L12.041,250.634L12.016,249.954L11.993,249.275L11.971,248.597L11.951,247.92L11.931,247.244L11.913,246.569L11.897,245.894L11.881,245.221L11.867,244.548L11.854,243.877L11.843,243.206L11.832,242.536L11.823,241.867L11.816,241.199L11.809,240.532L11.804,239.866L11.801,239.2L11.798,238.536L11.797,237.872L11.797,237.21L11.799,236.548L11.801,235.887L11.805,235.227L11.811,234.568L11.817,233.91L11.825,233.252L11.834,232.596L11.845,231.94L11.856,231.286L11.869,230.632L11.884,229.979L11.899,229.327L11.916,228.676L11.934,228.026L11.954,227.376L11.975,226.728L11.997,226.081L12.02,225.434L12.045,224.788L12.071,224.143L12.098,223.499L12.126,222.856L12.156,222.214L12.187,221.573L12.219,220.933L12.253,220.293L12.288,219.654L12.324,219.017L12.362,218.38L12.4,217.744L12.441,217.109L12.482,216.475L12.525,215.841L12.568,215.209L12.614,214.578L12.66,213.947L12.708,213.317L12.757,212.688L12.807,212.06L12.859,211.433L12.912,210.807L12.966,210.182L13.021,209.557L13.078,208.934L13.136,208.311L13.195,207.69L13.256,207.069L13.318,206.449L13.381,205.83L13.445,205.211L13.511,204.594L13.578,203.978L13.646,203.362L13.715,202.747L13.786,202.134L13.858,201.521L13.931,200.909L14.006,200.297L14.082,199.687L14.159,199.078L14.237,198.469L14.317,197.862L14.398,197.255L14.48,196.649L14.564,196.044L14.649,195.44L14.735,194.837L14.822,194.234L14.911,193.633L15,193.032L15.092,192.433L15.184,191.834L15.278,191.236L15.373,190.639L15.469,190.043L15.566,189.447L15.665,188.853L15.765,188.259L15.866,187.667L15.969,187.075L16.073,186.484L16.178,185.894L16.284,185.305L16.392,184.717L16.501,184.129L16.611,183.543L16.723,182.957L16.835,182.372L16.949,181.788L17.064,181.205L17.181,180.623L17.299,180.042L17.418,179.461L17.538,178.882L17.66,178.303L17.782,177.726L17.906,177.149L18.032,176.573L18.158,175.997L18.286,175.423L18.415,174.85L18.546,174.277L18.677,173.706L18.81,173.135L18.945,172.565L19.08,171.996L19.217,171.428L19.355,170.86L19.494,170.294L19.634,169.728L19.776,169.164L19.919,168.6L20.063,168.037L20.209,167.475L20.356,166.914L20.504,166.353L20.653,165.794L20.803,165.235L20.955,164.678L21.108,164.121L21.263,163.565L21.418,163.01L21.575,162.455L21.733,161.902L21.892,161.35L22.053,160.798L22.215,160.247L22.378,159.697L22.542,159.148L22.708,158.6L22.875,158.053L23.043,157.506L23.212,156.961L23.383,156.416L23.555,155.872L23.728,155.329L23.902,154.787L24.078,154.246L24.255,153.705L24.433,153.166L24.612,152.627L24.793,152.09L24.975,151.553L25.158,151.017L25.342,150.481L25.528,149.947L25.714,149.414L25.903,148.881L26.092,148.349L26.282,147.818L26.474,147.288L26.667,146.759L26.862,146.231L27.057,145.704L27.254,145.177L27.452,144.651L27.651,144.126L27.852,143.603L28.054,143.079L28.257,142.557L28.461,142.036L28.667,141.515L28.873,140.996L29.082,140.477L29.291,139.959L29.501,139.442L29.713,138.925L29.926,138.41L30.14,137.896L30.356,137.382L30.572,136.869L30.79,136.357L31.01,135.846L31.23,135.336L31.452,134.827L31.675,134.318L31.899,133.81L32.124,133.304L32.351,132.798L32.578,132.293L32.808,131.788L33.038,131.285L33.269,130.782L33.502,130.281L33.736,129.78L33.972,129.28L34.208,128.781L34.446,128.283L34.685,127.785L34.925,127.289L35.166,126.793L35.409,126.298L35.653,125.804L35.898,125.311L36.145,124.819L36.392,124.328L36.641,123.837L36.891,123.347L37.142,122.858L37.395,122.37L37.649,121.883L37.904,121.397L38.16,120.912L38.417,120.427L38.676,119.943L38.936,119.46L39.197,118.978L39.46,118.497L39.723,118.017L39.988,117.537L40.254,117.059L40.521,116.581L40.79,116.104L41.06,115.628L41.331,115.153L41.603,114.678L41.876,114.205L42.151,113.732L42.427,113.26L42.704,112.789L42.982,112.319L43.262,111.85L43.543,111.381L43.825,110.914L44.108,110.447L44.392,109.981L44.678,109.516L44.965,109.052L45.253,108.588L45.542,108.126L45.833,107.664L46.125,107.203L46.418,106.743L46.712,106.284L47.007,105.826L47.304,105.368L47.602,104.912L47.901,104.456L48.201,104.001L48.503,103.547L48.806,103.094L49.11,102.641L49.415,102.19L49.721,101.739L50.029,101.289L50.338,100.84L50.648,100.392L50.959,99.945L51.272,99.498L51.585,99.053L51.9,98.608L52.217,98.164L52.534,97.721L52.853,97.278L53.172,96.837L53.493,96.396L53.816,95.957L54.139,95.518L54.464,95.08L54.79,94.642L55.117,94.206L55.445,93.77L55.774,93.336L56.105,92.902L56.437,92.469L56.77,92.036L57.105,91.605L57.44,91.175L57.777,90.745L58.115,90.316L58.454,89.888L58.794,89.461L59.136,89.034L59.479,88.609L59.823,88.184L60.168,87.76L60.515,87.337L60.862,86.915L61.211,86.494L61.561,86.073L61.912,85.654L62.265,85.235L62.619,84.817L62.973,84.4L63.329,83.983L63.687,83.568L64.045,83.153L64.405,82.739L64.766,82.326L65.128,81.914L65.491,81.503L65.856,81.092L66.222,80.683L66.589,80.274L66.957,79.866L67.326,79.459L67.696,79.052L68.068,78.647L68.441,78.242L68.815,77.838L69.191,77.435L69.567,77.033L69.945,76.632L70.324,76.231L70.704,75.831L71.085,75.433L71.468,75.035L71.852,74.637L72.236,74.241L72.623,73.845L73.01,73.451L73.398,73.057L73.788,72.664L74.179,72.272L74.571,71.88L74.964,71.49L75.359,71.1L75.755,70.711L76.152,70.323L76.55,69.936L76.949,69.549L77.349,69.163L77.751,68.779L78.154,68.395L78.558,68.012L78.963,67.629L79.37,67.248L79.777,66.867L80.186,66.487L80.596,66.108L81.007,65.73L81.42,65.353L81.833,64.976L82.248,64.6L82.664,64.226L83.081,63.851L83.499,63.478L83.919,63.106L84.34,62.734L84.762,62.363L85.185,61.993L85.609,61.624L86.034,61.256L86.461,60.888L86.889,60.522L87.318,60.156L87.748,59.791L88.18,59.427L88.612,59.063L89.046,58.701L89.481,58.339L89.917,57.978L90.354,57.618L90.793,57.259L91.233,56.9L91.674,56.543L92.116,56.186L92.559,55.83L93.003,55.475L93.449,55.12L93.896,54.767L94.344,54.414L94.793,54.062L95.243,53.711L95.695,53.361L96.147,53.011L96.601,52.662L97.056,52.315L97.512,51.968L97.97,51.621L98.428,51.276L98.888,50.931L99.349,50.588L99.811,50.245L100.275,49.902L100.739,49.561L101.205,49.221L101.672,48.881L102.14,48.542L102.609,48.204L103.079,47.867L103.551,47.53L104.023,47.195L104.497,46.86L104.972,46.526L105.449,46.193L105.926,45.86L106.405,45.529L106.884,45.198L107.365,44.868L107.847,44.539L108.331,44.211L108.815,43.883L109.301,43.557L109.788,43.231L110.276,42.906L110.765,42.581L111.255,42.258L111.746,41.935L112.239,41.613L112.733,41.292L113.228,40.972L113.724,40.653L114.221,40.334L114.72,40.016L115.219,39.699L115.72,39.383L116.222,39.068L116.725,38.753L117.23,38.44L117.735,38.127L118.242,37.815L118.75,37.503L119.259,37.193L119.769,36.883L120.28,36.574L120.793,36.266L121.306,35.959L121.821,35.652L122.337,35.347L122.854,35.042L123.373,34.738L123.892,34.434L124.413,34.132L124.934,33.83L125.457,33.529L125.982,33.229L126.507,32.93L127.033,32.632L127.561,32.334L128.09,32.037L128.62,31.741L129.151,31.446L129.683,31.152L130.216,30.858L130.751,30.565L131.286,30.273L131.823,29.982L132.361,29.691L132.901,29.402L133.441,29.113L133.982,28.825L134.525,28.538L135.069,28.251L135.614,27.966L136.16,27.681L136.707,27.397L137.256,27.114L137.805,26.831L138.356,26.55L138.908,26.269L139.461,25.989L140.015,25.71L140.571,25.431L141.127,25.154L141.685,24.877L142.244,24.601L142.803,24.325L143.365,24.051L143.927,23.777L144.49,23.505L145.055,23.232L145.621,22.961L146.187,22.691L146.755,22.421L147.325,22.152L147.895,21.884L148.466,21.617L149.039,21.35L149.613,21.085L150.188,20.82L150.764,20.556L151.341,20.292L151.919,20.03L152.499,19.768L153.08,19.507L153.661,19.247L154.244,18.988L154.828,18.729L155.414,18.472L156,18.215L156.598,18.457ZM155.902,24.27L155.329,24.526L154.758,24.783L154.188,25.04L153.619,25.299L153.051,25.558L152.485,25.817L151.919,26.078L151.355,26.339L150.792,26.601L150.23,26.864L149.669,27.128L149.109,27.392L148.551,27.657L147.994,27.923L147.438,28.19L146.883,28.457L146.329,28.725L145.776,28.994L145.225,29.264L144.674,29.534L144.125,29.806L143.577,30.078L143.031,30.35L142.485,30.624L141.94,30.898L141.397,31.173L140.855,31.449L140.314,31.726L139.774,32.003L139.236,32.281L138.698,32.56L138.162,32.84L137.627,33.12L137.093,33.401L136.56,33.683L136.029,33.966L135.498,34.25L134.969,34.534L134.441,34.819L133.914,35.105L133.388,35.391L132.864,35.679L132.34,35.967L131.818,36.256L131.297,36.546L130.777,36.836L130.258,37.127L129.741,37.419L129.224,37.712L128.709,38.005L128.195,38.3L127.682,38.595L127.17,38.891L126.66,39.187L126.151,39.485L125.642,39.783L125.135,40.082L124.63,40.381L124.125,40.682L123.621,40.983L123.119,41.285L122.618,41.588L122.118,41.891L121.619,42.195L121.122,42.5L120.625,42.806L120.13,43.113L119.636,43.42L119.143,43.728L118.651,44.037L118.161,44.347L117.671,44.657L117.183,44.969L116.696,45.281L116.21,45.593L115.725,45.907L115.242,46.221L114.76,46.536L114.278,46.852L113.798,47.169L113.32,47.486L112.842,47.805L112.366,48.124L111.89,48.443L111.416,48.764L110.943,49.085L110.472,49.407L110.001,49.73L109.532,50.053L109.063,50.378L108.596,50.703L108.13,51.029L107.666,51.356L107.202,51.683L106.74,52.011L106.279,52.34L105.819,52.67L105.36,53.001L104.902,53.332L104.446,53.664L103.991,53.997L103.537,54.331L103.084,54.665L102.632,55L102.182,55.336L101.732,55.673L101.284,56.011L100.837,56.349L100.391,56.688L99.947,57.028L99.503,57.369L99.061,57.71L98.62,58.052L98.18,58.395L97.741,58.739L97.303,59.084L96.867,59.429L96.432,59.775L95.998,60.122L95.565,60.47L95.133,60.818L94.703,61.167L94.273,61.517L93.845,61.868L93.418,62.22L92.993,62.572L92.568,62.925L92.145,63.279L91.722,63.634L91.301,63.989L90.882,64.345L90.463,64.702L90.045,65.06L89.629,65.419L89.214,65.778L88.8,66.138L88.387,66.499L87.976,66.861L87.565,67.223L87.156,67.587L86.748,67.951L86.341,68.316L85.935,68.681L85.531,69.048L85.128,69.415L84.725,69.783L84.324,70.152L83.925,70.521L83.526,70.892L83.129,71.263L82.732,71.635L82.337,72.007L81.943,72.381L81.551,72.755L81.159,73.13L80.769,73.506L80.38,73.883L79.992,74.26L79.605,74.638L79.219,75.017L78.835,75.397L78.452,75.778L78.07,76.159L77.689,76.541L77.309,76.924L76.931,77.308L76.553,77.692L76.177,78.078L75.802,78.464L75.428,78.851L75.056,79.239L74.684,79.627L74.314,80.016L73.945,80.406L73.577,80.797L73.211,81.189L72.845,81.581L72.481,81.975L72.118,82.369L71.756,82.764L71.395,83.159L71.035,83.556L70.677,83.953L70.32,84.351L69.964,84.75L69.609,85.149L69.255,85.55L68.903,85.951L68.551,86.353L68.201,86.756L67.852,87.159L67.504,87.564L67.158,87.969L66.812,88.375L66.468,88.782L66.125,89.189L65.783,89.598L65.443,90.007L65.103,90.417L64.765,90.828L64.428,91.239L64.092,91.652L63.757,92.065L63.424,92.479L63.091,92.894L62.76,93.31L62.43,93.726L62.101,94.143L61.774,94.561L61.447,94.98L61.122,95.4L60.798,95.82L60.475,96.242L60.153,96.664L59.833,97.087L59.513,97.51L59.195,97.935L58.878,98.36L58.562,98.786L58.248,99.213L57.934,99.641L57.622,100.07L57.311,100.499L57.001,100.929L56.692,101.36L56.385,101.792L56.079,102.225L55.773,102.658L55.469,103.092L55.167,103.528L54.865,103.963L54.565,104.4L54.266,104.838L53.968,105.276L53.671,105.715L53.375,106.155L53.081,106.596L52.787,107.038L52.495,107.48L52.204,107.923L51.915,108.367L51.626,108.812L51.339,109.258L51.053,109.705L50.768,110.152L50.484,110.6L50.201,111.049L49.92,111.499L49.64,111.95L49.361,112.401L49.083,112.853L48.806,113.307L48.531,113.76L48.256,114.215L47.983,114.671L47.711,115.127L47.441,115.585L47.171,116.043L46.903,116.502L46.636,116.961L46.37,117.422L46.105,117.883L45.841,118.346L45.579,118.809L45.318,119.273L45.058,119.737L44.799,120.203L44.541,120.67L44.285,121.137L44.03,121.605L43.776,122.074L43.523,122.544L43.271,123.014L43.021,123.486L42.771,123.958L42.523,124.431L42.276,124.905L42.031,125.38L41.786,125.855L41.543,126.332L41.301,126.809L41.06,127.287L40.82,127.766L40.581,128.246L40.344,128.727L40.108,129.208L39.873,129.691L39.639,130.174L39.407,130.658L39.175,131.143L38.945,131.629L38.716,132.115L38.488,132.603L38.262,133.091L38.036,133.58L37.812,134.07L37.589,134.561L37.367,135.053L37.147,135.545L36.927,136.039L36.709,136.533L36.492,137.028L36.276,137.524L36.061,138.021L35.848,138.518L35.636,139.017L35.425,139.516L35.215,140.016L35.006,140.517L34.799,141.019L34.593,141.522L34.388,142.026L34.184,142.53L33.981,143.036L33.78,143.542L33.58,144.049L33.38,144.557L33.183,145.066L32.986,145.575L32.791,146.086L32.596,146.597L32.403,147.109L32.212,147.623L32.021,148.137L31.832,148.651L31.644,149.167L31.457,149.684L31.271,150.201L31.086,150.719L30.903,151.238L30.721,151.759L30.54,152.279L30.36,152.801L30.182,153.324L30.004,153.847L29.828,154.372L29.653,154.897L29.48,155.423L29.307,155.95L29.136,156.478L28.966,157.007L28.797,157.536L28.629,158.067L28.463,158.598L28.298,159.13L28.134,159.663L27.971,160.197L27.809,160.732L27.649,161.268L27.49,161.804L27.332,162.342L27.175,162.88L27.02,163.419L26.865,163.959L26.712,164.5L26.56,165.042L26.41,165.585L26.26,166.129L26.112,166.673L25.965,167.219L25.819,167.765L25.675,168.312L25.532,168.86L25.39,169.409L25.249,169.959L25.109,170.509L24.971,171.061L24.833,171.613L24.697,172.167L24.563,172.721L24.429,173.276L24.297,173.832L24.166,174.389L24.036,174.946L23.907,175.505L23.78,176.065L23.653,176.625L23.528,177.186L23.405,177.749L23.282,178.312L23.161,178.876L23.041,179.44L22.922,180.006L22.804,180.573L22.688,181.14L22.573,181.709L22.459,182.278L22.346,182.848L22.235,183.419L22.124,183.991L22.015,184.564L21.908,185.138L21.801,185.713L21.696,186.288L21.592,186.865L21.489,187.442L21.387,188.02L21.287,188.6L21.188,189.18L21.09,189.761L20.993,190.343L20.898,190.925L20.803,191.509L20.71,192.093L20.619,192.679L20.528,193.265L20.439,193.853L20.351,194.441L20.264,195.03L20.179,195.62L20.094,196.211L20.011,196.802L19.93,197.395L19.849,197.988L19.77,198.583L19.692,199.178L19.615,199.775L19.539,200.372L19.465,200.97L19.392,201.569L19.32,202.169L19.249,202.769L19.18,203.371L19.112,203.974L19.045,204.577L18.979,205.182L18.915,205.787L18.852,206.393L18.79,207L18.729,207.608L18.67,208.217L18.612,208.827L18.555,209.438L18.499,210.05L18.445,210.662L18.392,211.276L18.34,211.89L18.289,212.506L18.24,213.122L18.192,213.739L18.145,214.357L18.099,214.976L18.055,215.596L18.012,216.217L17.97,216.838L17.929,217.461L17.89,218.084L17.852,218.709L17.815,219.334L17.78,219.96L17.745,220.588L17.712,221.216L17.68,221.845L17.65,222.475L17.621,223.105L17.593,223.737L17.566,224.37L17.54,225.003L17.516,225.638L17.493,226.273L17.472,226.91L17.451,227.547L17.432,228.185L17.414,228.824L17.398,229.464L17.382,230.105L17.368,230.747L17.355,231.39L17.344,232.033L17.334,232.678L17.325,233.324L17.317,233.97L17.31,234.617L17.305,235.266L17.301,235.915L17.299,236.565L17.297,237.216L17.297,237.868L17.298,238.521L17.301,239.175L17.304,239.829L17.309,240.485L17.316,241.142L17.323,241.799L17.332,242.457L17.342,243.117L17.353,243.777L17.366,244.438L17.38,245.1L17.395,245.763L17.411,246.427L17.429,247.092L17.448,247.758L17.468,248.425L17.49,249.092L17.513,249.761L17.537,250.43L17.562,251.101L17.589,251.772L17.617,252.445L17.646,253.118L17.677,253.792L17.709,254.467L17.725,254.799L17.745,254.809L18.287,255.099L18.83,255.387L19.373,255.675L19.915,255.961L20.458,256.246L21.001,256.53L21.544,256.813L22.086,257.095L22.629,257.376L23.172,257.655L23.715,257.933L24.258,258.21L24.801,258.486L25.344,258.761L25.886,259.034L26.429,259.307L26.972,259.578L27.515,259.848L28.058,260.117L28.601,260.385L29.144,260.651L29.687,260.917L30.23,261.181L30.773,261.444L31.316,261.706L31.86,261.967L32.403,262.227L32.946,262.485L33.489,262.743L34.032,262.999L34.575,263.254L35.118,263.508L35.661,263.76L36.205,264.012L36.748,264.262L37.291,264.512L37.835,264.76L38.378,265.007L38.921,265.252L39.464,265.497L40.008,265.741L40.551,265.983L41.094,266.224L41.638,266.464L42.181,266.703L42.724,266.94L43.268,267.177L43.812,267.412L44.355,267.646L44.898,267.879L45.442,268.111L45.985,268.342L46.529,268.571L47.072,268.8L47.616,269.027L48.159,269.253L48.703,269.478L49.247,269.702L49.79,269.924L50.334,270.146L50.878,270.366L51.421,270.585L51.965,270.803L52.509,271.02L53.052,271.236L53.596,271.45L54.14,271.664L54.684,271.876L55.228,272.087L55.771,272.297L56.315,272.505L56.859,272.713L57.403,272.919L57.947,273.125L58.491,273.329L59.035,273.532L59.579,273.734L60.123,273.934L60.667,274.134L61.21,274.332L61.754,274.529L62.299,274.725L62.843,274.92L63.387,275.114L63.931,275.306L64.475,275.498L65.019,275.688L65.563,275.877L66.107,276.065L66.651,276.252L67.196,276.437L67.74,276.621L68.284,276.805L68.828,276.987L69.373,277.168L69.917,277.348L70.461,277.526L71.005,277.704L71.55,277.88L72.094,278.055L72.638,278.23L73.183,278.402L73.727,278.574L74.272,278.745L74.816,278.914L75.361,279.082L75.905,279.25L76.45,279.415L76.994,279.58L77.539,279.744L78.083,279.906L78.628,280.068L79.173,280.228L79.717,280.387L80.262,280.545L80.807,280.702L81.351,280.857L81.896,281.012L82.441,281.165L82.986,281.317L83.53,281.468L84.075,281.618L84.62,281.766L85.165,281.914L85.71,282.06L86.255,282.205L86.799,282.349L87.344,282.492L87.889,282.634L88.434,282.775L88.979,282.914L89.524,283.052L90.069,283.189L90.614,283.325L91.159,283.46L91.705,283.594L92.25,283.726L92.795,283.858L93.34,283.988L93.885,284.117L94.43,284.245L94.976,284.371L95.521,284.497L96.066,284.621L96.611,284.745L97.157,284.867L97.702,284.988L98.248,285.108L98.793,285.226L99.338,285.344L99.884,285.46L100.429,285.575L100.975,285.689L101.52,285.802L102.066,285.914L102.611,286.024L103.157,286.134L103.703,286.242L104.248,286.349L104.794,286.455L105.34,286.56L105.885,286.664L106.431,286.766L106.977,286.868L107.523,286.968L108.069,287.067L108.615,287.165L109.16,287.262L109.706,287.357L110.252,287.452L110.798,287.545L111.344,287.637L111.89,287.728L112.436,287.818L112.982,287.907L113.528,287.994L114.075,288.08L114.621,288.166L115.167,288.25L115.713,288.333L116.259,288.414L116.806,288.495L117.352,288.575L117.898,288.653L118.444,288.73L118.991,288.806L119.537,288.881L120.084,288.955L120.63,289.027L121.177,289.099L121.723,289.169L122.27,289.238L122.816,289.306L123.363,289.373L123.91,289.438L124.456,289.503L125.003,289.566L125.55,289.628L126.096,289.689L126.643,289.749L127.19,289.808L127.737,289.865L128.284,289.922L128.83,289.977L129.377,290.031L129.924,290.084L130.471,290.136L131.018,290.187L131.566,290.236L132.113,290.284L132.66,290.332L133.207,290.378L133.754,290.423L134.301,290.466L134.849,290.509L135.396,290.55L135.943,290.591L136.491,290.63L137.038,290.668L137.585,290.705L138.133,290.74L138.68,290.775L139.228,290.808L139.776,290.84L140.323,290.871L140.871,290.901L141.418,290.93L141.966,290.958L142.514,290.984L143.061,291.009L143.609,291.034L144.157,291.057L144.705,291.078L145.253,291.099L145.801,291.119L146.349,291.137L146.897,291.154L147.445,291.17L147.993,291.185L148.541,291.199L149.089,291.212L149.637,291.223L150.186,291.233L150.734,291.243L151.282,291.251L151.831,291.257L152.379,291.263L152.928,291.268L153.476,291.271L154.024,291.273L154.573,291.274L155.121,291.274L155.67,291.273L156.219,291.271L156.767,291.267L157.316,291.263L157.865,291.257L158.414,291.25L158.963,291.242L159.512,291.232L160.06,291.222L160.609,291.21L161.158,291.197L161.707,291.183L162.256,291.168L162.806,291.152L163.355,291.135L163.904,291.116L164.453,291.097L165.003,291.076L165.552,291.054L166.101,291.031L166.651,291.006L167.2,290.981L167.75,290.954L168.299,290.926L168.849,290.897L169.398,290.867L169.948,290.836L170.498,290.804L171.048,290.77L171.597,290.735L172.147,290.7L172.697,290.663L173.247,290.624L173.797,290.585L174.347,290.544L174.897,290.503L175.447,290.46L175.997,290.416L176.547,290.371L177.098,290.325L177.648,290.277L178.198,290.229L178.749,290.179L179.299,290.128L179.85,290.076L180.4,290.023L180.951,289.968L181.501,289.913L182.052,289.856L182.603,289.798L183.153,289.739L183.704,289.679L184.255,289.618L184.806,289.555L185.357,289.492L185.907,289.427L186.459,289.361L187.01,289.294L187.561,289.225L188.112,289.156L188.663,289.085L189.214,289.014L189.766,288.941L190.317,288.867L190.868,288.792L191.42,288.715L191.971,288.638L192.523,288.559L193.074,288.479L193.626,288.398L194.178,288.316L194.729,288.232L195.281,288.148L195.833,288.062L196.385,287.975L196.937,287.887L197.489,287.798L198.041,287.708L198.593,287.617L199.145,287.524L199.697,287.43L200.249,287.335L200.802,287.239L201.354,287.142L201.906,287.043L202.459,286.944L203.011,286.843L203.564,286.741L204.116,286.638L204.669,286.534L205.222,286.428L205.774,286.322L206.327,286.214L206.88,286.105L207.433,285.995L207.986,285.884L208.539,285.772L209.092,285.658L209.645,285.543L210.198,285.427L210.751,285.31L211.305,285.192L211.858,285.073L212.411,284.952L212.965,284.831L213.518,284.708L214.072,284.584L214.625,284.459L215.179,284.332L215.732,284.205L216.286,284.076L216.84,283.946L217.394,283.815L217.948,283.683L218.502,283.55L219.055,283.415L219.609,283.279L220.164,283.143L220.718,283.005L221.272,282.865L221.826,282.725L222.38,282.584L222.935,282.441L223.489,282.297L224.044,282.152L224.598,282.006L225.153,281.859L225.708,281.71L226.262,281.56L226.817,281.41L227.372,281.258L227.927,281.104L228.481,280.95L229.036,280.795L229.591,280.638L230.147,280.48L230.702,280.321L231.257,280.161L231.812,280L232.367,279.837L232.923,279.673L233.478,279.508L234.034,279.342L234.589,279.175L235.145,279.007L235.7,278.837L236.256,278.667L236.812,278.495L237.368,278.322L237.923,278.147L238.479,277.972L239.035,277.795L239.591,277.618L240.147,277.439L240.704,277.259L241.26,277.078L241.816,276.895L242.372,276.712L242.929,276.527L243.485,276.341L244.041,276.154L244.598,275.965L245.155,275.776L245.711,275.585L246.268,275.394L246.825,275.201L247.381,275.007L247.938,274.811L248.495,274.615L249.052,274.417L249.609,274.218L250.166,274.018L250.724,273.817L251.281,273.615L251.838,273.411L252.395,273.206L252.953,273.001L253.51,272.794L254.068,272.585L254.625,272.376L255.183,272.165L255.741,271.954L256.298,271.741L256.856,271.527L257.414,271.311L257.972,271.095L258.53,270.877L259.088,270.658L259.646,270.438L260.204,270.217L260.762,269.995L261.32,269.771L261.879,269.547L262.437,269.321L262.996,269.094L263.554,268.866L264.113,268.636L264.671,268.406L265.23,268.174L265.789,267.941L266.347,267.707L266.906,267.472L267.465,267.235L268.024,266.998L268.583,266.759L269.142,266.519L269.701,266.278L270.26,266.035L270.82,265.792L271.379,265.547L271.938,265.301L272.498,265.054L273.057,264.806L273.617,264.556L274.176,264.306L274.736,264.054L275.296,263.801L275.855,263.547L276.415,263.292L276.975,263.035L277.535,262.777L278.095,262.519L278.655,262.259L279.215,261.997L279.775,261.735L280.336,261.471L280.896,261.207L281.456,260.941L282.017,260.673L282.577,260.405L283.138,260.136L283.698,259.865L284.259,259.593L284.82,259.32L285.38,259.046L285.941,258.77L286.502,258.494L287.063,258.216L287.624,257.937L288.185,257.657L288.746,257.376L289.307,257.093L289.869,256.809L290.43,256.525L290.991,256.239L291.553,255.951L292.114,255.663L292.675,255.373L293.237,255.082L293.799,254.79L293.808,254.786L293.815,254.566L293.837,253.892L293.857,253.22L293.876,252.548L293.893,251.876L293.91,251.206L293.925,250.536L293.94,249.868L293.953,249.2L293.965,248.533L293.976,247.867L293.986,247.202L293.994,246.537L294.002,245.874L294.008,245.211L294.013,244.55L294.017,243.889L294.02,243.228L294.022,242.569L294.022,241.911L294.022,241.253L294.02,240.596L294.017,239.941L294.013,239.286L294.008,238.631L294.002,237.978L293.995,237.326L293.986,236.674L293.976,236.023L293.965,235.373L293.953,234.724L293.94,234.076L293.926,233.429L293.911,232.782L293.894,232.137L293.876,231.492L293.857,230.848L293.837,230.205L293.816,229.563L293.794,228.922L293.77,228.281L293.746,227.642L293.72,227.003L293.693,226.365L293.665,225.728L293.636,225.092L293.605,224.456L293.574,223.822L293.541,223.188L293.507,222.555L293.472,221.924L293.436,221.292L293.399,220.662L293.36,220.033L293.321,219.405L293.28,218.777L293.238,218.15L293.195,217.524L293.151,216.899L293.106,216.275L293.059,215.652L293.012,215.029L292.963,214.408L292.913,213.787L292.862,213.167L292.81,212.548L292.756,211.93L292.702,211.313L292.646,210.696L292.589,210.081L292.531,209.466L292.472,208.852L292.412,208.239L292.351,207.627L292.288,207.016L292.224,206.405L292.159,205.796L292.093,205.187L292.026,204.579L291.958,203.972L291.888,203.366L291.818,202.761L291.746,202.157L291.673,201.553L291.599,200.95L291.524,200.349L291.447,199.748L291.37,199.148L291.291,198.549L291.211,197.95L291.13,197.353L291.048,196.756L290.964,196.161L290.88,195.566L290.794,194.972L290.707,194.379L290.62,193.786L290.53,193.195L290.44,192.604L290.349,192.015L290.256,191.426L290.162,190.838L290.068,190.251L289.972,189.665L289.874,189.079L289.776,188.495L289.677,187.911L289.576,187.329L289.474,186.747L289.371,186.166L289.267,185.586L289.162,185.006L289.055,184.428L288.948,183.85L288.839,183.274L288.729,182.698L288.618,182.123L288.506,181.549L288.393,180.976L288.278,180.403L288.162,179.832L288.046,179.261L287.928,178.691L287.808,178.123L287.688,177.554L287.567,176.987L287.444,176.421L287.32,175.856L287.195,175.291L287.069,174.728L286.942,174.165L286.814,173.603L286.684,173.042L286.553,172.481L286.421,171.922L286.288,171.364L286.154,170.806L286.019,170.249L285.882,169.693L285.745,169.138L285.606,168.584L285.466,168.031L285.325,167.479L285.183,166.927L285.039,166.376L284.894,165.827L284.749,165.278L284.602,164.73L284.454,164.182L284.304,163.636L284.154,163.091L284.002,162.546L283.85,162.002L283.696,161.459L283.541,160.917L283.384,160.376L283.227,159.836L283.069,159.297L282.909,158.758L282.748,158.221L282.586,157.684L282.423,157.148L282.258,156.613L282.093,156.079L281.926,155.545L281.758,155.013L281.589,154.481L281.419,153.95L281.248,153.421L281.075,152.892L280.902,152.364L280.727,151.836L280.551,151.31L280.374,150.784L280.196,150.26L280.016,149.736L279.836,149.213L279.654,148.691L279.471,148.17L279.287,147.65L279.101,147.13L278.915,146.612L278.727,146.094L278.539,145.577L278.349,145.061L278.158,144.546L277.965,144.032L277.772,143.518L277.577,143.006L277.381,142.494L277.185,141.983L276.986,141.474L276.787,140.964L276.587,140.456L276.385,139.949L276.182,139.442L275.978,138.937L275.773,138.432L275.567,137.928L275.36,137.425L275.151,136.923L274.941,136.422L274.73,135.922L274.518,135.422L274.305,134.923L274.09,134.426L273.875,133.929L273.658,133.432L273.44,132.937L273.221,132.443L273.001,131.949L272.779,131.457L272.557,130.965L272.333,130.474L272.108,129.984L271.882,129.495L271.654,129.007L271.426,128.519L271.196,128.033L270.965,127.547L270.733,127.062L270.5,126.578L270.266,126.095L270.03,125.613L269.793,125.131L269.556,124.651L269.317,124.171L269.076,123.692L268.835,123.214L268.592,122.737L268.349,122.261L268.104,121.786L267.858,121.311L267.61,120.838L267.362,120.365L267.112,119.893L266.861,119.422L266.609,118.952L266.356,118.482L266.102,118.014L265.846,117.546L265.589,117.079L265.332,116.614L265.073,116.149L264.812,115.684L264.551,115.221L264.288,114.759L264.024,114.297L263.759,113.836L263.493,113.376L263.226,112.917L262.957,112.459L262.688,112.002L262.417,111.545L262.145,111.09L261.871,110.635L261.597,110.181L261.321,109.728L261.044,109.276L260.766,108.825L260.487,108.374L260.207,107.925L259.925,107.476L259.643,107.028L259.359,106.581L259.074,106.135L258.787,105.69L258.5,105.245L258.211,104.801L257.921,104.359L257.63,103.917L257.338,103.476L257.044,103.036L256.75,102.596L256.454,102.158L256.157,101.72L255.859,101.283L255.559,100.848L255.259,100.413L254.957,99.978L254.654,99.545L254.35,99.113L254.044,98.681L253.738,98.25L253.43,97.82L253.121,97.391L252.811,96.963L252.499,96.536L252.187,96.109L251.873,95.684L251.558,95.259L251.242,94.835L250.925,94.412L250.606,93.99L250.286,93.568L249.965,93.148L249.643,92.728L249.32,92.309L248.995,91.891L248.67,91.474L248.343,91.058L248.014,90.642L247.685,90.228L247.354,89.814L247.023,89.401L246.69,88.989L246.355,88.578L246.02,88.168L245.683,87.759L245.346,87.35L245.007,86.942L244.666,86.535L244.325,86.129L243.982,85.724L243.638,85.32L243.293,84.916L242.947,84.514L242.599,84.112L242.251,83.711L241.901,83.311L241.55,82.912L241.197,82.513L240.844,82.116L240.489,81.719L240.133,81.323L239.776,80.928L239.417,80.534L239.058,80.141L238.697,79.749L238.335,79.357L237.971,78.966L237.607,78.576L237.241,78.188L236.874,77.799L236.506,77.412L236.136,77.026L235.766,76.64L235.394,76.255L235.021,75.871L234.646,75.488L234.271,75.106L233.894,74.725L233.516,74.344L233.137,73.965L232.757,73.586L232.375,73.208L231.992,72.831L231.608,72.455L231.222,72.079L230.836,71.705L230.448,71.331L230.059,70.958L229.669,70.586L229.277,70.215L228.884,69.845L228.491,69.475L228.095,69.107L227.699,68.739L227.301,68.372L226.902,68.006L226.502,67.641L226.101,67.277L225.698,66.913L225.294,66.551L224.889,66.189L224.483,65.828L224.075,65.468L223.666,65.109L223.256,64.75L222.845,64.393L222.433,64.036L222.019,63.68L221.604,63.325L221.187,62.971L220.77,62.618L220.351,62.266L219.931,61.914L219.51,61.563L219.087,61.214L218.664,60.865L218.239,60.517L217.812,60.169L217.385,59.823L216.956,59.477L216.526,59.133L216.095,58.789L215.663,58.446L215.229,58.104L214.794,57.762L214.358,57.422L213.92,57.082L213.481,56.744L213.041,56.406L212.6,56.069L212.158,55.733L211.714,55.397L211.269,55.063L210.823,54.729L210.375,54.397L209.926,54.065L209.476,53.734L209.025,53.403L208.572,53.074L208.118,52.746L207.663,52.418L207.207,52.091L206.749,51.766L206.291,51.441L205.83,51.116L205.369,50.793L204.906,50.471L204.442,50.149L203.977,49.828L203.511,49.508L203.043,49.189L202.574,48.871L202.104,48.554L201.632,48.238L201.159,47.922L200.685,47.607L200.21,47.294L199.733,46.981L199.256,46.668L198.776,46.357L198.296,46.047L197.814,45.737L197.331,45.429L196.847,45.121L196.362,44.814L195.875,44.508L195.387,44.203L194.897,43.898L194.407,43.595L193.915,43.292L193.422,42.99L192.927,42.689L192.432,42.389L191.935,42.09L191.436,41.792L190.937,41.494L190.436,41.198L189.934,40.902L189.43,40.607L188.926,40.313L188.42,40.02L187.913,39.728L187.404,39.437L186.894,39.146L186.383,38.856L185.871,38.568L185.357,38.28L184.842,37.993L184.326,37.707L183.809,37.421L183.29,37.137L182.77,36.853L182.248,36.571L181.726,36.289L181.202,36.008L180.676,35.728L180.15,35.449L179.622,35.17L179.093,34.893L178.563,34.616L178.031,34.341L177.498,34.066L176.964,33.792L176.428,33.519L175.891,33.246L175.353,32.975L174.814,32.705L174.273,32.435L173.731,32.166L173.188,31.898L172.643,31.632L172.097,31.365L171.55,31.1L171.001,30.836L170.452,30.572L169.9,30.31L169.348,30.048L168.794,29.787L168.239,29.527L167.683,29.268L167.125,29.01L166.567,28.753L166.006,28.496L165.445,28.241L164.882,27.986L164.318,27.732L163.753,27.479L163.186,27.227L162.618,26.976L162.049,26.726L161.478,26.476L160.906,26.228L160.333,25.98L159.758,25.734L159.182,25.488L158.605,25.243L158.027,24.999L157.447,24.755L156.866,24.513L156.284,24.272L156.084,24.189L155.902,24.27Z"/>
    </g>
    <g>
        <path d="M61.943,232.495C62.665,160.632 96.217,108.97 155.534,80.737C213.944,107.247 246.383,161.51 250.057,232.495C189.34,262.045 119.936,260.988 61.943,232.495ZM221.494,197.007L165.08,102.2L147.957,102.2L90.777,197.007L113.477,197.007L123.028,181.35L147.957,181.35L147.957,245.775L165.08,245.775L165.08,181.35L190.131,181.35L199.039,197.007L221.494,197.007ZM155.534,123.098L132.167,165.307L181.097,165.307L155.534,123.098Z"/>
    </g>
    <g transform="matrix(1,0,0,1,0,14.655)">
        <ellipse cx="156" cy="28.613" rx="2.306" ry="2.237"/>
        <path d="M156.059,26.376L156.119,26.378L156.177,26.382L156.236,26.387L156.293,26.393L156.351,26.401L156.408,26.41L156.464,26.421L156.52,26.433L156.576,26.446L156.631,26.46L156.685,26.476L156.739,26.493L156.792,26.511L156.845,26.531L156.897,26.551L156.948,26.573L156.999,26.596L157.049,26.62L157.099,26.645L157.147,26.672L157.195,26.699L157.242,26.728L157.289,26.758L157.334,26.788L157.379,26.82L157.423,26.853L157.466,26.886L157.508,26.921L157.55,26.957L157.59,26.993L157.63,27.031L157.669,27.069L157.706,27.109L157.743,27.149L157.779,27.19L157.814,27.232L157.847,27.274L157.88,27.318L157.912,27.362L157.942,27.407L157.972,27.453L158,27.499L158.027,27.547L158.053,27.594L158.078,27.643L158.102,27.692L158.124,27.742L158.146,27.793L158.166,27.844L158.184,27.895L158.202,27.948L158.218,28L158.233,28.054L158.246,28.108L158.259,28.162L158.27,28.217L158.279,28.272L158.287,28.328L158.294,28.384L158.299,28.441L158.303,28.498L158.305,28.555L158.306,28.613L158.305,28.67L158.303,28.728L158.299,28.785L158.294,28.841L158.287,28.897L158.279,28.953L158.27,29.009L158.259,29.063L158.246,29.118L158.233,29.172L158.218,29.225L158.202,29.278L158.184,29.33L158.166,29.382L158.146,29.433L158.124,29.483L158.102,29.533L158.078,29.582L158.053,29.631L158.027,29.679L158,29.726L157.972,29.772L157.942,29.818L157.912,29.863L157.88,29.908L157.847,29.951L157.814,29.994L157.779,30.036L157.743,30.077L157.706,30.117L157.669,30.156L157.63,30.194L157.59,30.232L157.55,30.269L157.508,30.304L157.466,30.339L157.423,30.373L157.379,30.405L157.334,30.437L157.289,30.468L157.242,30.497L157.195,30.526L157.147,30.553L157.099,30.58L157.049,30.605L156.999,30.629L156.948,30.652L156.897,30.674L156.845,30.695L156.792,30.714L156.739,30.732L156.685,30.749L156.631,30.765L156.576,30.78L156.52,30.793L156.464,30.805L156.408,30.815L156.351,30.824L156.293,30.832L156.236,30.839L156.177,30.844L156.119,30.847L156.059,30.849L156,30.85L155.941,30.849L155.881,30.847L155.823,30.844L155.764,30.839L155.707,30.832L155.649,30.824L155.592,30.815L155.536,30.805L155.48,30.793L155.424,30.78L155.369,30.765L155.315,30.749L155.261,30.732L155.208,30.714L155.155,30.695L155.103,30.674L155.052,30.652L155.001,30.629L154.951,30.605L154.901,30.58L154.853,30.553L154.805,30.526L154.758,30.497L154.711,30.468L154.666,30.437L154.621,30.405L154.577,30.373L154.534,30.339L154.492,30.304L154.45,30.269L154.41,30.232L154.37,30.194L154.331,30.156L154.294,30.117L154.257,30.077L154.221,30.036L154.186,29.994L154.153,29.951L154.12,29.908L154.088,29.863L154.058,29.818L154.028,29.772L154,29.726L153.973,29.679L153.947,29.631L153.922,29.582L153.898,29.533L153.876,29.483L153.854,29.433L153.834,29.382L153.816,29.33L153.798,29.278L153.782,29.225L153.767,29.172L153.754,29.118L153.741,29.063L153.73,29.009L153.721,28.953L153.713,28.897L153.706,28.841L153.701,28.785L153.697,28.728L153.695,28.67L153.694,28.613L153.695,28.555L153.697,28.498L153.701,28.441L153.706,28.384L153.713,28.328L153.721,28.272L153.73,28.217L153.741,28.162L153.754,28.108L153.767,28.054L153.782,28L153.798,27.948L153.816,27.895L153.834,27.844L153.854,27.793L153.876,27.742L153.898,27.692L153.922,27.643L153.947,27.594L153.973,27.547L154,27.499L154.028,27.453L154.058,27.407L154.088,27.362L154.12,27.318L154.153,27.274L154.186,27.232L154.221,27.19L154.257,27.149L154.294,27.109L154.331,27.069L154.37,27.031L154.41,26.993L154.45,26.957L154.492,26.921L154.534,26.886L154.577,26.853L154.621,26.82L154.666,26.788L154.711,26.758L154.758,26.728L154.805,26.699L154.853,26.672L154.901,26.645L154.951,26.62L155.001,26.596L155.052,26.573L155.103,26.551L155.155,26.531L155.208,26.511L155.261,26.493L155.315,26.476L155.369,26.46L155.424,26.446L155.48,26.433L155.536,26.421L155.592,26.41L155.649,26.401L155.707,26.393L155.764,26.387L155.823,26.382L155.881,26.378L155.941,26.376L156,26.375L156.059,26.376ZM155.965,27.376L155.931,27.377L155.896,27.379L155.863,27.382L155.829,27.386L155.796,27.39L155.763,27.396L155.731,27.402L155.698,27.408L155.667,27.416L155.635,27.424L155.604,27.433L155.573,27.443L155.543,27.453L155.513,27.464L155.483,27.476L155.454,27.489L155.425,27.502L155.396,27.516L155.368,27.53L155.34,27.545L155.313,27.561L155.286,27.577L155.26,27.594L155.234,27.611L155.208,27.629L155.183,27.648L155.159,27.667L155.135,27.687L155.112,27.707L155.089,27.727L155.066,27.749L155.045,27.77L155.024,27.792L155.003,27.815L154.983,27.838L154.964,27.861L154.945,27.885L154.927,27.909L154.909,27.934L154.892,27.958L154.876,27.984L154.86,28.009L154.845,28.035L154.831,28.061L154.818,28.088L154.805,28.115L154.792,28.142L154.781,28.169L154.77,28.197L154.76,28.225L154.75,28.253L154.742,28.281L154.734,28.31L154.726,28.339L154.72,28.368L154.714,28.398L154.709,28.428L154.705,28.458L154.701,28.488L154.698,28.519L154.696,28.55L154.695,28.581L154.695,28.613L154.695,28.644L154.696,28.675L154.698,28.706L154.701,28.737L154.705,28.767L154.709,28.798L154.714,28.827L154.72,28.857L154.726,28.886L154.734,28.915L154.742,28.944L154.75,28.972L154.76,29L154.77,29.028L154.781,29.056L154.792,29.083L154.805,29.111L154.818,29.137L154.831,29.164L154.845,29.19L154.86,29.216L154.876,29.242L154.892,29.267L154.909,29.292L154.927,29.316L154.945,29.34L154.964,29.364L154.983,29.388L155.003,29.411L155.024,29.433L155.045,29.455L155.066,29.477L155.089,29.498L155.112,29.519L155.135,29.539L155.159,29.558L155.183,29.577L155.208,29.596L155.234,29.614L155.26,29.631L155.286,29.648L155.313,29.665L155.34,29.68L155.368,29.695L155.396,29.71L155.425,29.723L155.454,29.737L155.483,29.749L155.513,29.761L155.543,29.772L155.573,29.782L155.604,29.792L155.635,29.801L155.667,29.809L155.698,29.817L155.731,29.824L155.763,29.83L155.796,29.835L155.829,29.84L155.863,29.843L155.896,29.846L155.931,29.848L155.965,29.85L156,29.85L156.035,29.85L156.069,29.848L156.104,29.846L156.137,29.843L156.171,29.84L156.204,29.835L156.237,29.83L156.269,29.824L156.302,29.817L156.333,29.809L156.365,29.801L156.396,29.792L156.427,29.782L156.457,29.772L156.487,29.761L156.517,29.749L156.546,29.737L156.575,29.724L156.604,29.71L156.632,29.695L156.66,29.68L156.687,29.665L156.714,29.648L156.74,29.631L156.766,29.614L156.792,29.596L156.817,29.577L156.841,29.558L156.865,29.539L156.888,29.519L156.911,29.498L156.934,29.477L156.955,29.455L156.976,29.433L156.997,29.411L157.017,29.388L157.036,29.364L157.055,29.34L157.073,29.316L157.091,29.292L157.108,29.267L157.124,29.242L157.14,29.216L157.155,29.19L157.169,29.164L157.182,29.137L157.195,29.111L157.208,29.083L157.219,29.056L157.23,29.028L157.24,29L157.25,28.972L157.258,28.944L157.266,28.915L157.274,28.886L157.28,28.857L157.286,28.827L157.291,28.797L157.295,28.767L157.299,28.737L157.302,28.706L157.304,28.675L157.305,28.644L157.305,28.613L157.305,28.581L157.304,28.55L157.302,28.519L157.299,28.488L157.295,28.458L157.291,28.428L157.286,28.398L157.28,28.368L157.274,28.339L157.266,28.31L157.258,28.281L157.25,28.253L157.24,28.225L157.23,28.197L157.219,28.169L157.208,28.142L157.195,28.115L157.182,28.088L157.169,28.061L157.155,28.035L157.14,28.009L157.124,27.984L157.108,27.959L157.091,27.934L157.073,27.909L157.055,27.885L157.036,27.861L157.017,27.838L156.997,27.815L156.976,27.792L156.955,27.77L156.934,27.749L156.911,27.727L156.888,27.707L156.865,27.687L156.841,27.667L156.817,27.648L156.792,27.629L156.766,27.611L156.74,27.594L156.714,27.577L156.687,27.561L156.66,27.545L156.632,27.53L156.604,27.516L156.575,27.502L156.546,27.489L156.517,27.476L156.487,27.464L156.457,27.453L156.427,27.443L156.396,27.433L156.365,27.424L156.333,27.416L156.302,27.408L156.269,27.402L156.237,27.396L156.204,27.39L156.171,27.386L156.137,27.382L156.104,27.379L156.069,27.377L156.035,27.376L156,27.375L155.965,27.376Z"/>
    </g>
    <g transform="matrix(1,0,0,1,0,263.12)">
        <ellipse cx="156" cy="28.613" rx="2.306" ry="2.237"/>
        <path d="M156.059,26.376L156.119,26.378L156.177,26.382L156.236,26.387L156.293,26.393L156.351,26.401L156.408,26.41L156.464,26.421L156.52,26.433L156.576,26.446L156.631,26.46L156.685,26.476L156.739,26.493L156.792,26.511L156.845,26.531L156.897,26.551L156.948,26.573L156.999,26.596L157.049,26.62L157.099,26.645L157.147,26.672L157.195,26.699L157.242,26.728L157.289,26.758L157.334,26.788L157.379,26.82L157.423,26.853L157.466,26.886L157.508,26.921L157.55,26.957L157.59,26.993L157.63,27.031L157.669,27.069L157.706,27.109L157.743,27.149L157.779,27.19L157.814,27.232L157.847,27.274L157.88,27.318L157.912,27.362L157.942,27.407L157.972,27.453L158,27.499L158.027,27.547L158.053,27.594L158.078,27.643L158.102,27.692L158.124,27.742L158.146,27.793L158.166,27.844L158.184,27.895L158.202,27.948L158.218,28L158.233,28.054L158.246,28.108L158.259,28.162L158.27,28.217L158.279,28.272L158.287,28.328L158.294,28.384L158.299,28.441L158.303,28.498L158.305,28.555L158.306,28.613L158.305,28.67L158.303,28.728L158.299,28.785L158.294,28.841L158.287,28.897L158.279,28.953L158.27,29.009L158.259,29.063L158.246,29.118L158.233,29.172L158.218,29.225L158.202,29.278L158.184,29.33L158.166,29.382L158.146,29.433L158.124,29.483L158.102,29.533L158.078,29.582L158.053,29.631L158.027,29.679L158,29.726L157.972,29.772L157.942,29.818L157.912,29.863L157.88,29.908L157.847,29.951L157.814,29.994L157.779,30.036L157.743,30.077L157.706,30.117L157.669,30.156L157.63,30.194L157.59,30.232L157.55,30.269L157.508,30.304L157.466,30.339L157.423,30.373L157.379,30.405L157.334,30.437L157.289,30.468L157.242,30.497L157.195,30.526L157.147,30.553L157.099,30.58L157.049,30.605L156.999,30.629L156.948,30.652L156.897,30.674L156.845,30.695L156.792,30.714L156.739,30.732L156.685,30.749L156.631,30.765L156.576,30.78L156.52,30.793L156.464,30.805L156.408,30.815L156.351,30.824L156.293,30.832L156.236,30.839L156.177,30.844L156.119,30.847L156.059,30.849L156,30.85L155.941,30.849L155.881,30.847L155.823,30.844L155.764,30.839L155.707,30.832L155.649,30.824L155.592,30.815L155.536,30.805L155.48,30.793L155.424,30.78L155.369,30.765L155.315,30.749L155.261,30.732L155.208,30.714L155.155,30.695L155.103,30.674L155.052,30.652L155.001,30.629L154.951,30.605L154.901,30.58L154.853,30.553L154.805,30.526L154.758,30.497L154.711,30.468L154.666,30.437L154.621,30.405L154.577,30.373L154.534,30.339L154.492,30.304L154.45,30.269L154.41,30.232L154.37,30.194L154.331,30.156L154.294,30.117L154.257,30.077L154.221,30.036L154.186,29.994L154.153,29.951L154.12,29.908L154.088,29.863L154.058,29.818L154.028,29.772L154,29.726L153.973,29.679L153.947,29.631L153.922,29.582L153.898,29.533L153.876,29.483L153.854,29.433L153.834,29.382L153.816,29.33L153.798,29.278L153.782,29.225L153.767,29.172L153.754,29.118L153.741,29.063L153.73,29.009L153.721,28.953L153.713,28.897L153.706,28.841L153.701,28.785L153.697,28.728L153.695,28.67L153.694,28.613L153.695,28.555L153.697,28.498L153.701,28.441L153.706,28.384L153.713,28.328L153.721,28.272L153.73,28.217L153.741,28.162L153.754,28.108L153.767,28.054L153.782,28L153.798,27.948L153.816,27.895L153.834,27.844L153.854,27.793L153.876,27.742L153.898,27.692L153.922,27.643L153.947,27.594L153.973,27.547L154,27.499L154.028,27.453L154.058,27.407L154.088,27.362L154.12,27.318L154.153,27.274L154.186,27.232L154.221,27.19L154.257,27.149L154.294,27.109L154.331,27.069L154.37,27.031L154.41,26.993L154.45,26.957L154.492,26.921L154.534,26.886L154.577,26.853L154.621,26.82L154.666,26.788L154.711,26.758L154.758,26.728L154.805,26.699L154.853,26.672L154.901,26.645L154.951,26.62L155.001,26.596L155.052,26.573L155.103,26.551L155.155,26.531L155.208,26.511L155.261,26.493L155.315,26.476L155.369,26.46L155.424,26.446L155.48,26.433L155.536,26.421L155.592,26.41L155.649,26.401L155.707,26.393L155.764,26.387L155.823,26.382L155.881,26.378L155.941,26.376L156,26.375L156.059,26.376ZM155.965,27.376L155.931,27.377L155.896,27.379L155.863,27.382L155.829,27.386L155.796,27.39L155.763,27.396L155.731,27.402L155.698,27.408L155.667,27.416L155.635,27.424L155.604,27.433L155.573,27.443L155.543,27.453L155.513,27.464L155.483,27.476L155.453,27.489L155.425,27.502L155.396,27.516L155.368,27.53L155.34,27.545L155.313,27.561L155.286,27.577L155.26,27.594L155.234,27.611L155.208,27.629L155.184,27.648L155.159,27.667L155.135,27.687L155.112,27.707L155.089,27.727L155.066,27.749L155.045,27.77L155.024,27.792L155.003,27.815L154.983,27.838L154.964,27.861L154.945,27.885L154.927,27.909L154.909,27.934L154.892,27.958L154.876,27.984L154.86,28.009L154.845,28.035L154.831,28.061L154.818,28.088L154.805,28.115L154.792,28.142L154.781,28.169L154.77,28.197L154.76,28.225L154.75,28.253L154.742,28.282L154.734,28.31L154.726,28.339L154.72,28.368L154.714,28.398L154.709,28.428L154.705,28.458L154.701,28.488L154.698,28.519L154.696,28.55L154.695,28.581L154.695,28.613L154.695,28.644L154.696,28.675L154.698,28.706L154.701,28.737L154.705,28.767L154.709,28.798L154.714,28.827L154.72,28.857L154.726,28.886L154.734,28.915L154.742,28.944L154.75,28.972L154.76,29L154.77,29.028L154.781,29.056L154.792,29.084L154.805,29.111L154.818,29.137L154.831,29.164L154.845,29.19L154.86,29.216L154.876,29.242L154.892,29.267L154.909,29.292L154.927,29.316L154.945,29.34L154.964,29.364L154.983,29.388L155.003,29.41L155.024,29.433L155.045,29.455L155.067,29.477L155.089,29.498L155.112,29.519L155.135,29.539L155.159,29.558L155.184,29.578L155.208,29.596L155.234,29.614L155.26,29.632L155.286,29.648L155.313,29.665L155.34,29.68L155.368,29.695L155.396,29.71L155.425,29.723L155.454,29.737L155.483,29.749L155.513,29.761L155.543,29.772L155.573,29.782L155.604,29.792L155.635,29.801L155.666,29.809L155.698,29.817L155.731,29.824L155.763,29.83L155.796,29.835L155.829,29.84L155.862,29.843L155.896,29.846L155.931,29.848L155.965,29.85L156,29.85L156.035,29.85L156.069,29.848L156.104,29.846L156.138,29.843L156.171,29.84L156.204,29.835L156.237,29.83L156.269,29.824L156.302,29.817L156.334,29.809L156.365,29.801L156.396,29.792L156.427,29.782L156.457,29.772L156.487,29.761L156.517,29.749L156.546,29.737L156.575,29.724L156.604,29.71L156.632,29.695L156.66,29.68L156.687,29.665L156.714,29.648L156.74,29.632L156.766,29.614L156.792,29.596L156.816,29.578L156.841,29.558L156.865,29.539L156.888,29.518L156.911,29.498L156.933,29.477L156.955,29.455L156.976,29.433L156.997,29.41L157.017,29.388L157.036,29.364L157.055,29.34L157.073,29.316L157.091,29.292L157.108,29.267L157.124,29.242L157.14,29.216L157.155,29.19L157.169,29.164L157.182,29.137L157.195,29.111L157.208,29.083L157.219,29.056L157.23,29.028L157.24,29L157.25,28.972L157.258,28.944L157.266,28.915L157.274,28.886L157.28,28.857L157.286,28.827L157.291,28.797L157.295,28.767L157.299,28.737L157.302,28.706L157.304,28.675L157.305,28.644L157.305,28.613L157.305,28.581L157.304,28.55L157.302,28.519L157.299,28.488L157.295,28.458L157.291,28.428L157.286,28.398L157.28,28.368L157.274,28.339L157.266,28.31L157.258,28.282L157.25,28.253L157.24,28.225L157.23,28.197L157.219,28.169L157.208,28.142L157.195,28.115L157.182,28.088L157.169,28.061L157.155,28.035L157.14,28.009L157.124,27.984L157.108,27.959L157.091,27.934L157.073,27.909L157.055,27.885L157.036,27.861L157.017,27.838L156.997,27.815L156.976,27.792L156.955,27.77L156.934,27.749L156.911,27.727L156.888,27.707L156.865,27.687L156.841,27.667L156.816,27.648L156.792,27.629L156.766,27.611L156.74,27.594L156.714,27.577L156.687,27.561L156.66,27.545L156.632,27.53L156.604,27.516L156.575,27.502L156.547,27.489L156.517,27.476L156.487,27.464L156.457,27.453L156.427,27.443L156.396,27.433L156.365,27.424L156.333,27.416L156.302,27.408L156.269,27.402L156.237,27.396L156.204,27.39L156.171,27.386L156.137,27.382L156.104,27.379L156.069,27.377L156.035,27.376L156,27.375L155.965,27.376Z"/>
    </g>
</svg>
